<?xml version="1.0" encoding="utf-8"?>
<svg width="390" height="269" viewBox="0 0 390 269" xmlns="http://www.w3.org/2000/svg">
<rect id="frame" x="0" y="0" width="390" height="269" fill="#ffffbf" stroke="none" stroke-width="0"/>

<!-- Association AJOUTE -->
<g>
	<line x1="56" y1="51" x2="166" y2="51" stroke="#f46d43" stroke-width="2"/>
	<text x="108" y="68" fill="#3288bd" font-family="Verdana" font-size="12">0,N</text>
	<line x1="166" y1="143" x2="166" y2="51" stroke="#f46d43" stroke-width="2"/>
	<text x="171" y="93" fill="#3288bd" font-family="Verdana" font-size="12">0,N</text>
	<g>
		<path d="M183 26 a14 14 90 0 1 14 14 V51 h-62 V40 a14 14 90 0 1 14 -14" fill="#fdae61" stroke="#fdae61" stroke-width="0"/>
		<path d="M197 51 v11 a14 14 90 0 1 -14 14 H149 a14 14 90 0 1 -14 -14 V51 H62" fill="#fee08b" stroke="#fee08b" stroke-width="0"/>
		<rect x="135" y="26" width="62" height="50" fill="none" rx="14" stroke="#f46d43" stroke-width="2"/>
		<line x1="135" y1="51" x2="197" y2="51" stroke="#f46d43" stroke-width="1"/>
		<text x="142" y="43.75" fill="#000" font-family="Verdana" font-size="12">AJOUTE</text>
	</g>
</g>

<!-- Association CREER -->
<g>
	<line x1="56" y1="51" x2="56" y2="143" stroke="#f46d43" stroke-width="2"/>
	<text x="61" y="110" fill="#3288bd" font-family="Verdana" font-size="12">0,N</text>
	<line x1="56" y1="235" x2="56" y2="143" stroke="#f46d43" stroke-width="2"/>
	<text x="61" y="202" fill="#3288bd" font-family="Verdana" font-size="12">0,N</text>
	<g>
		<path d="M70 118 a14 14 90 0 1 14 14 V143 h-56 V132 a14 14 90 0 1 14 -14" fill="#fdae61" stroke="#fdae61" stroke-width="0"/>
		<path d="M84 143 v11 a14 14 90 0 1 -14 14 H42 a14 14 90 0 1 -14 -14 V143 H56" fill="#fee08b" stroke="#fee08b" stroke-width="0"/>
		<rect x="28" y="118" width="56" height="50" fill="none" rx="14" stroke="#f46d43" stroke-width="2"/>
		<line x1="28" y1="143" x2="84" y2="143" stroke="#f46d43" stroke-width="1"/>
		<text x="36" y="135.75" fill="#000" font-family="Verdana" font-size="12">CREER</text>
	</g>
</g>

<!-- Association POSSEDE -->
<g>
	<line x1="166" y1="143" x2="264" y2="143" stroke="#f46d43" stroke-width="2"/>
	<text x="200" y="160" fill="#3288bd" font-family="Verdana" font-size="12">0,N</text>
	<line x1="357" y1="143" x2="264" y2="143" stroke="#f46d43" stroke-width="2"/>
	<text x="306" y="160" fill="#3288bd" font-family="Verdana" font-size="12">0,N</text>
	<g>
		<path d="M287 118 a14 14 90 0 1 14 14 V143 h-74 V132 a14 14 90 0 1 14 -14" fill="#fdae61" stroke="#fdae61" stroke-width="0"/>
		<path d="M301 143 v11 a14 14 90 0 1 -14 14 H241 a14 14 90 0 1 -14 -14 V143 H74" fill="#fee08b" stroke="#fee08b" stroke-width="0"/>
		<rect x="227" y="118" width="74" height="50" fill="none" rx="14" stroke="#f46d43" stroke-width="2"/>
		<line x1="227" y1="143" x2="301" y2="143" stroke="#f46d43" stroke-width="1"/>
		<text x="235" y="135.75" fill="#000" font-family="Verdana" font-size="12">POSSEDE</text>
	</g>
</g>

<!-- Association CONTIENT -->
<g>
	<line x1="56" y1="235" x2="166" y2="235" stroke="#f46d43" stroke-width="2"/>
	<text x="84" y="252" fill="#3288bd" font-family="Verdana" font-size="12">0,N</text>
	<line x1="166" y1="143" x2="166" y2="235" stroke="#f46d43" stroke-width="2"/>
	<text x="171" y="202" fill="#3288bd" font-family="Verdana" font-size="12">0,N</text>
	<g>
		<path d="M191 210 a14 14 90 0 1 14 14 V235 h-78 V224 a14 14 90 0 1 14 -14" fill="#fdae61" stroke="#fdae61" stroke-width="0"/>
		<path d="M205 235 v11 a14 14 90 0 1 -14 14 H141 a14 14 90 0 1 -14 -14 V235 H78" fill="#fee08b" stroke="#fee08b" stroke-width="0"/>
		<rect x="127" y="210" width="78" height="50" fill="none" rx="14" stroke="#f46d43" stroke-width="2"/>
		<line x1="127" y1="235" x2="205" y2="235" stroke="#f46d43" stroke-width="1"/>
		<text x="134" y="227.75" fill="#000" font-family="Verdana" font-size="12">CONTIENT</text>
	</g>
</g>

<!-- Entity UTILISATEUR -->
<g>
	<g>
		<rect x="9" y="9" width="94" height="25" fill="#abdda4" stroke="#abdda4" stroke-width="0" opacity="1"/>
		<rect x="9" y="34" width="94" height="59" fill="#e6f598" stroke="#e6f598" stroke-width="0" opacity="1"/>
		<rect x="9" y="9" width="94" height="84" fill="none" stroke="#66c2a5" stroke-width="2" opacity="1"/>
		<line x1="9" y1="34" x2="103" y2="34" stroke="#66c2a5" stroke-width="1"/>
	</g>
	<text x="15" y="26.75" fill="#000" font-family="Verdana" font-size="12">UTILISATEUR</text>
	<text x="14" y="51.8" fill="#000" font-family="Verdana" font-size="12">email</text>
	<line x1="14" y1="54" x2="48" y2="54" stroke="#000" stroke-width="1"/>
	<text x="14" y="68.8" fill="#000" font-family="Verdana" font-size="12">nom</text>
	<text x="14" y="85.8" fill="#000" font-family="Verdana" font-size="12">mot de passe</text>
</g>

<!-- Entity CARTE -->
<g>
	<g>
		<rect x="137" y="101" width="58" height="25" fill="#abdda4" stroke="#abdda4" stroke-width="0" opacity="1"/>
		<rect x="137" y="126" width="58" height="59" fill="#e6f598" stroke="#e6f598" stroke-width="0" opacity="1"/>
		<rect x="137" y="101" width="58" height="84" fill="none" stroke="#66c2a5" stroke-width="2" opacity="1"/>
		<line x1="137" y1="126" x2="195" y2="126" stroke="#66c2a5" stroke-width="1"/>
	</g>
	<text x="146" y="118.75" fill="#000" font-family="Verdana" font-size="12">CARTE</text>
	<text x="142" y="143.8" fill="#000" font-family="Verdana" font-size="12">titre</text>
	<line x1="142" y1="146" x2="168" y2="146" stroke="#000" stroke-width="1"/>
	<text x="142" y="160.8" fill="#000" font-family="Verdana" font-size="12">position</text>
	<text x="142" y="177.8" fill="#000" font-family="Verdana" font-size="12">couleur</text>
</g>

<!-- Entity LABEL -->
<g>
	<g>
		<rect x="333" y="118" width="48" height="25" fill="#abdda4" stroke="#abdda4" stroke-width="0" opacity="1"/>
		<rect x="333" y="143" width="48" height="25" fill="#e6f598" stroke="#e6f598" stroke-width="0" opacity="1"/>
		<rect x="333" y="118" width="48" height="50" fill="none" stroke="#66c2a5" stroke-width="2" opacity="1"/>
		<line x1="333" y1="143" x2="381" y2="143" stroke="#66c2a5" stroke-width="1"/>
	</g>
	<text x="338" y="135.75" fill="#000" font-family="Verdana" font-size="12">LABEL</text>
	<text x="338" y="160.8" fill="#000" font-family="Verdana" font-size="12">titre</text>
	<line x1="338" y1="163" x2="364" y2="163" stroke="#000" stroke-width="1"/>
</g>

<!-- Entity LISTE -->
<g>
	<g>
		<rect x="33" y="210" width="46" height="25" fill="#abdda4" stroke="#abdda4" stroke-width="0" opacity="1"/>
		<rect x="33" y="235" width="46" height="25" fill="#e6f598" stroke="#e6f598" stroke-width="0" opacity="1"/>
		<rect x="33" y="210" width="46" height="50" fill="none" stroke="#66c2a5" stroke-width="2" opacity="1"/>
		<line x1="33" y1="235" x2="79" y2="235" stroke="#66c2a5" stroke-width="1"/>
	</g>
	<text x="38" y="227.75" fill="#000" font-family="Verdana" font-size="12">LISTE</text>
	<text x="38" y="252.8" fill="#000" font-family="Verdana" font-size="12">nom</text>
	<line x1="38" y1="255" x2="66" y2="255" stroke="#000" stroke-width="1"/>
</g>
</svg>