<?xml version="1.0" encoding="utf-8"?>
<svg width="280" height="203" viewBox="0 0 280 203" xmlns="http://www.w3.org/2000/svg">
<rect id="frame" x="0" y="0" width="280" height="203" fill="#f7f7f7" stroke="none" stroke-width="0"/>

<!-- Association Possede -->
<g>
	<line x1="139" y1="143" x2="41" y2="143" stroke="#9970ab" stroke-width="2"/>
	<text x="78" y="160" fill="#1b7837" font-family="Verdana" font-size="12">0,N</text>
	<line x1="41" y1="51" x2="41" y2="143" stroke="#9970ab" stroke-width="2"/>
	<text x="46" y="102" fill="#1b7837" font-family="Verdana" font-size="12">0,N</text>
	<g>
		<path d="M59 118 a14 14 90 0 1 14 14 V143 h-64 V132 a14 14 90 0 1 14 -14" fill="#c2a5cf" stroke="#c2a5cf" stroke-width="0"/>
		<path d="M73 143 v11 a14 14 90 0 1 -14 14 H23 a14 14 90 0 1 -14 -14 V143 H64" fill="#e7d4e8" stroke="#e7d4e8" stroke-width="0"/>
		<rect x="9" y="118" width="64" height="50" fill="none" rx="14" stroke="#9970ab" stroke-width="2"/>
		<line x1="9" y1="143" x2="73" y2="143" stroke="#9970ab" stroke-width="1"/>
		<text x="16" y="135.75" fill="#000" font-family="Verdana" font-size="12">Possede</text>
	</g>
</g>

<!-- Association Contenir -->
<g>
	<line x1="139" y1="143" x2="238" y2="143" stroke="#9970ab" stroke-width="2"/>
	<text x="178" y="160" fill="#1b7837" font-family="Verdana" font-size="12">1,1</text>
	<line x1="238" y1="51" x2="238" y2="143" stroke="#9970ab" stroke-width="2"/>
	<text x="243" y="110" fill="#1b7837" font-family="Verdana" font-size="12">0,N</text>
	<g>
		<path d="M257 118 a14 14 90 0 1 14 14 V143 h-66 V132 a14 14 90 0 1 14 -14" fill="#c2a5cf" stroke="#c2a5cf" stroke-width="0"/>
		<path d="M271 143 v11 a14 14 90 0 1 -14 14 H219 a14 14 90 0 1 -14 -14 V143 H66" fill="#e7d4e8" stroke="#e7d4e8" stroke-width="0"/>
		<rect x="205" y="118" width="66" height="50" fill="none" rx="14" stroke="#9970ab" stroke-width="2"/>
		<line x1="205" y1="143" x2="271" y2="143" stroke="#9970ab" stroke-width="1"/>
		<text x="212" y="135.75" fill="#000" font-family="Verdana" font-size="12">Contenir</text>
	</g>
</g>

<!-- Entity Tag -->
<g>
	<g>
		<rect x="10" y="17" width="62" height="25" fill="#a6dba0" stroke="#a6dba0" stroke-width="0" opacity="1"/>
		<rect x="10" y="42" width="62" height="43" fill="#d9f0d3" stroke="#d9f0d3" stroke-width="0" opacity="1"/>
		<rect x="10" y="17" width="62" height="68" fill="none" stroke="#5aae61" stroke-width="2" opacity="1"/>
		<line x1="10" y1="42" x2="72" y2="42" stroke="#5aae61" stroke-width="1"/>
	</g>
	<text x="30" y="34.75" fill="#000" font-family="Verdana" font-size="12">Tag</text>
	<text x="15" y="59.8" fill="#000" font-family="Verdana" font-size="12">codeTag</text>
	<line x1="15" y1="62" x2="66" y2="62" stroke="#000" stroke-width="1"/>
	<text x="15" y="76.8" fill="#000" font-family="Verdana" font-size="12">name</text>
</g>

<!-- Entity List -->
<g>
	<g>
		<rect x="208" y="9" width="60" height="25" fill="#a6dba0" stroke="#a6dba0" stroke-width="0" opacity="1"/>
		<rect x="208" y="34" width="60" height="59" fill="#d9f0d3" stroke="#d9f0d3" stroke-width="0" opacity="1"/>
		<rect x="208" y="9" width="60" height="84" fill="none" stroke="#5aae61" stroke-width="2" opacity="1"/>
		<line x1="208" y1="34" x2="268" y2="34" stroke="#5aae61" stroke-width="1"/>
	</g>
	<text x="227" y="26.75" fill="#000" font-family="Verdana" font-size="12">List</text>
	<text x="213" y="51.8" fill="#000" font-family="Verdana" font-size="12">codeList</text>
	<line x1="213" y1="54" x2="263" y2="54" stroke="#000" stroke-width="1"/>
	<text x="213" y="68.8" fill="#000" font-family="Verdana" font-size="12">name</text>
	<text x="213" y="85.8" fill="#000" font-family="Verdana" font-size="12">position</text>
</g>

<!-- Entity Card -->
<g>
	<g>
		<rect x="105" y="92" width="68" height="25" fill="#a6dba0" stroke="#a6dba0" stroke-width="0" opacity="1"/>
		<rect x="105" y="117" width="68" height="77" fill="#d9f0d3" stroke="#d9f0d3" stroke-width="0" opacity="1"/>
		<rect x="105" y="92" width="68" height="102" fill="none" stroke="#5aae61" stroke-width="2" opacity="1"/>
		<line x1="105" y1="117" x2="173" y2="117" stroke="#5aae61" stroke-width="1"/>
	</g>
	<text x="125" y="109.75" fill="#000" font-family="Verdana" font-size="12">Card</text>
	<text x="110" y="134.8" fill="#000" font-family="Verdana" font-size="12">codeCard</text>
	<line x1="110" y1="137" x2="167" y2="137" stroke="#000" stroke-width="1"/>
	<text x="110" y="151.8" fill="#000" font-family="Verdana" font-size="12">name</text>
	<text x="110" y="168.8" fill="#000" font-family="Verdana" font-size="12">position</text>
	<text x="110" y="185.8" fill="#000" font-family="Verdana" font-size="12">color</text>
</g>
</svg>